<?xml version="1.0" standalone="no"?>
<!DOCTYPE svg PUBLIC "-//W3C//DTD SVG 20010904//EN"
 "http://www.w3.org/TR/2001/REC-SVG-20010904/DTD/svg10.dtd">
<svg version="1.0" xmlns="http://www.w3.org/2000/svg"
 width="1000.000000pt" height="1000.000000pt" viewBox="0 0 1000.000000 1000.000000"
 preserveAspectRatio="xMidYMid meet">
<metadata>
Created by potrace 1.11, written by Peter Selinger 2001-2013
</metadata>
<g transform="translate(0.000000,1000.000000) scale(0.100000,-0.100000)"
fill="#000000" stroke="none">
<path d="M4739 9995 c-2 -2 -38 -6 -79 -10 -41 -4 -77 -8 -80 -10 -3 -2 -28
-6 -54 -10 -27 -3 -52 -7 -56 -10 -3 -2 -22 -7 -41 -10 -19 -3 -65 -15 -104
-27 -38 -12 -78 -23 -88 -25 -10 -2 -37 -11 -60 -22 -23 -10 -64 -27 -92 -37
-158 -59 -427 -227 -573 -357 -165 -149 -304 -320 -439 -542 -17 -27 -46 -88
-47 -98 -1 -4 -8 -12 -16 -17 -8 -5 -11 -10 -7 -10 5 0 -1 -17 -12 -37 -26
-48 -45 -95 -42 -107 1 -5 -6 -17 -15 -27 -9 -11 -14 -19 -11 -19 3 0 -5 -30
-19 -67 -23 -64 -28 -81 -40 -143 -3 -14 -8 -34 -11 -45 -8 -24 -7 -19 -17
-75 -5 -25 -10 -54 -12 -64 -17 -94 -33 -337 -22 -329 5 2 4 -6 0 -19 -5 -13
-7 -34 -5 -48 2 -14 5 -50 7 -80 6 -79 14 -146 20 -178 3 -15 8 -42 11 -60 5
-27 28 -130 49 -212 25 -98 115 -308 184 -430 48 -86 119 -197 132 -210 3 -3
28 -34 55 -70 27 -36 93 -109 145 -162 89 -91 119 -117 215 -193 21 -16 44
-36 51 -42 7 -7 14 -13 17 -13 2 0 42 -25 88 -55 46 -30 90 -55 96 -55 7 0 13
-4 13 -10 0 -5 7 -10 15 -10 8 0 15 -4 15 -10 0 -5 3 -9 8 -8 4 2 36 -12 72
-29 64 -31 107 -50 123 -52 4 0 21 -8 38 -17 34 -17 160 -58 247 -79 52 -12
60 -14 65 -16 10 -3 49 -9 87 -14 25 -4 52 -8 60 -10 38 -10 176 -19 290 -19
157 1 265 10 390 36 30 6 62 12 70 13 28 4 145 36 175 48 17 6 32 12 35 12 45
5 381 158 388 177 2 4 8 8 13 8 14 0 152 93 234 158 75 60 128 108 203 185 82
85 88 91 138 157 27 36 54 71 61 78 36 38 223 369 223 394 0 4 9 27 19 51 17
36 65 168 70 190 0 4 2 9 2 12 1 3 3 10 4 15 1 6 3 11 5 13 4 5 39 168 44 209
3 18 5 33 6 33 1 0 3 14 5 30 2 17 6 62 10 100 7 73 8 295 1 355 -2 19 -7 60
-10 91 -3 30 -11 80 -17 110 -6 30 -13 66 -15 81 -3 14 -14 57 -25 95 -11 37
-22 75 -24 83 -6 27 -36 110 -55 156 -11 24 -19 46 -20 49 0 13 -98 197 -135
255 -22 36 -44 73 -48 83 -3 9 -11 17 -17 17 -5 0 -10 5 -10 11 0 10 -76 112
-125 167 -79 90 -201 206 -290 277 -27 22 -52 42 -55 45 -3 3 -36 26 -75 51
-249 160 -450 246 -740 314 -33 8 -68 14 -115 20 -25 3 -56 8 -70 11 -29 6
-406 15 -411 9z"/>
<path d="M3108 5595 c-2 -1 -37 -6 -78 -9 -41 -4 -91 -9 -110 -11 -32 -3 -116
-17 -180 -30 -14 -3 -41 -8 -60 -11 -19 -3 -40 -10 -46 -15 -6 -5 -13 -7 -16
-4 -5 5 -165 -37 -198 -52 -8 -4 -19 -8 -25 -8 -5 -1 -23 -7 -40 -14 -16 -6
-43 -16 -60 -22 -16 -6 -43 -17 -60 -24 -16 -8 -50 -21 -75 -31 -64 -25 -259
-126 -325 -168 -30 -20 -59 -36 -64 -36 -4 0 -16 -9 -26 -20 -10 -11 -22 -20
-27 -20 -5 0 -14 -5 -21 -10 -7 -6 -43 -34 -82 -62 -146 -107 -302 -249 -420
-383 -33 -37 -65 -73 -70 -79 -48 -53 -185 -242 -185 -255 0 -5 -3 -11 -7 -13
-11 -4 -74 -109 -128 -213 -26 -50 -52 -99 -58 -110 -6 -11 -12 -24 -13 -30
-2 -5 -19 -47 -39 -92 -20 -45 -38 -90 -40 -100 -2 -10 -13 -42 -24 -70 -10
-29 -17 -53 -14 -53 3 0 1 -6 -4 -12 -6 -7 -18 -44 -28 -83 -9 -38 -21 -81
-26 -95 -5 -14 -11 -41 -14 -60 -4 -19 -11 -55 -16 -80 -6 -25 -12 -63 -14
-85 -2 -22 -6 -53 -9 -70 -15 -92 -21 -201 -20 -380 1 -224 6 -290 39 -490 6
-36 34 -159 44 -193 10 -32 11 -37 16 -57 14 -54 70 -223 78 -232 5 -7 6 -13
2 -13 -4 0 -3 -6 3 -13 6 -6 11 -15 12 -19 2 -11 29 -78 51 -124 10 -22 19
-46 19 -52 0 -7 5 -12 10 -12 6 0 10 -8 10 -18 0 -10 4 -22 9 -27 8 -10 64
-109 85 -152 6 -13 14 -23 19 -23 4 0 7 -4 7 -10 0 -14 102 -170 112 -170 4 0
8 -5 8 -11 0 -26 184 -243 318 -375 39 -40 72 -71 72 -69 0 1 19 -15 43 -37
23 -21 89 -75 147 -118 58 -44 110 -84 117 -90 7 -5 15 -10 18 -10 3 0 36 -20
73 -45 37 -25 72 -45 79 -45 7 0 13 -4 13 -8 0 -5 20 -17 45 -28 25 -10 45
-22 45 -26 0 -4 4 -8 9 -8 5 0 55 -22 112 -49 100 -46 135 -62 152 -66 4 -2 9
-4 12 -5 3 -1 8 -3 13 -5 4 -1 14 -4 22 -8 8 -3 44 -15 80 -27 36 -12 74 -26
85 -30 11 -5 31 -11 45 -13 14 -3 51 -12 83 -21 31 -9 72 -18 90 -20 17 -2 39
-7 49 -11 9 -3 31 -8 50 -10 18 -2 33 -4 33 -5 0 -1 14 -3 30 -5 17 -2 46 -6
65 -9 140 -26 651 -26 740 -1 8 2 36 6 61 9 25 3 66 10 90 15 24 5 55 12 69
14 14 3 45 10 70 17 25 7 54 14 65 17 38 8 50 11 50 13 0 1 7 3 15 5 8 1 44
13 80 25 36 12 70 23 75 25 68 16 466 206 473 226 2 5 8 9 14 9 11 0 167 100
209 134 15 11 39 30 54 41 16 11 33 25 39 30 6 6 31 26 56 46 140 113 301 280
419 434 17 22 37 47 46 56 8 9 15 19 15 23 0 7 15 28 60 83 6 7 10 14 10 17 0
3 20 37 45 75 25 38 45 74 45 80 0 5 6 16 13 23 13 14 117 220 117 233 0 4 10
28 23 54 13 25 25 51 27 56 1 6 4 15 6 20 17 50 77 234 80 248 2 9 6 26 9 37
32 127 49 213 49 253 1 15 3 27 6 27 3 0 7 15 9 33 4 50 10 102 11 102 6 0 13
171 13 300 0 145 -14 380 -23 380 -1 0 -3 14 -5 30 -3 32 -13 91 -20 115 -2 8
-7 31 -10 50 -3 19 -15 69 -26 110 -11 41 -21 82 -23 90 -5 19 -54 169 -63
190 -3 8 -7 20 -9 25 -1 6 -10 28 -20 50 -10 22 -18 42 -19 45 -14 49 -120
255 -179 349 -15 22 -26 43 -26 47 0 3 -13 23 -30 44 -16 21 -30 43 -30 49 0
6 -4 11 -8 11 -5 0 -17 16 -28 35 -10 19 -22 35 -26 35 -5 0 -8 6 -8 14 0 8
-3 16 -7 18 -7 3 -81 90 -108 127 -21 28 -292 297 -329 326 -42 33 -111 88
-139 111 -9 8 -22 14 -27 14 -6 0 -10 5 -10 10 0 6 -5 10 -11 10 -5 0 -27 13
-47 29 -39 31 -47 36 -202 124 -258 146 -606 270 -885 313 -27 4 -52 8 -55 9
-3 1 -34 5 -70 9 -36 5 -78 10 -95 13 -32 4 -422 12 -427 8z"/>
<path d="M7887 5444 c-1 -1 -24 -5 -52 -8 -72 -8 -112 -15 -180 -32 -33 -9
-67 -17 -75 -19 -74 -16 -260 -99 -363 -162 -204 -123 -418 -346 -527 -548
-18 -33 -35 -62 -39 -65 -3 -3 -7 -9 -8 -15 -2 -5 -20 -53 -41 -105 -39 -95
-67 -187 -75 -247 -3 -17 -7 -35 -10 -40 -11 -19 -21 -158 -20 -293 2 -171 3
-178 38 -340 2 -8 4 -15 5 -15 1 0 4 -11 6 -25 2 -14 14 -50 25 -80 11 -30 22
-59 23 -65 24 -85 156 -318 215 -382 12 -12 21 -25 21 -28 0 -6 60 -72 121
-134 91 -92 253 -206 382 -269 110 -54 172 -81 194 -85 10 -2 36 -9 58 -15 22
-6 43 -12 47 -12 4 -1 22 -6 40 -11 18 -5 49 -12 68 -15 19 -3 42 -8 50 -11
20 -8 382 -12 395 -4 6 3 17 6 25 6 8 1 38 5 65 9 28 4 52 6 55 5 3 -1 14 3
26 9 11 6 34 14 50 17 40 8 44 9 89 24 116 38 332 149 392 201 7 5 17 10 23
10 5 0 10 4 10 9 0 5 14 18 30 28 37 24 183 165 225 218 17 21 38 46 48 56 9
11 14 19 10 19 -5 0 -3 4 2 8 17 11 95 133 95 147 0 7 4 15 9 17 18 7 117 243
136 323 1 6 5 17 8 25 3 8 8 31 11 50 3 19 8 49 11 65 4 17 9 44 11 60 8 48
12 369 6 380 -7 11 -9 19 -16 80 -2 22 -5 40 -6 40 -1 0 -4 14 -6 30 -3 17 -7
37 -11 45 -3 8 -8 24 -10 35 -19 104 -178 437 -215 453 -5 2 -8 8 -8 14 0 5
-6 15 -12 23 -7 7 -22 26 -33 41 -33 49 -274 284 -290 284 -6 0 -66 41 -75 51
-29 32 -297 158 -385 180 -80 21 -201 47 -250 54 -45 7 -312 15 -318 9z"/>
</g>
</svg>
