<?xml version="1.0" encoding="UTF-8" standalone="no"?>
<!-- Generator: Adobe Illustrator 15.0.0, SVG Export Plug-In . SVG Version: 6.00 Build 0)  -->

<svg
  xmlns="http://www.w3.org/2000/svg"
  version="1.1"
  id="Layer_1"
  x="0px"
  y="0px"
  width="109.2"
  height="102.206"
  viewBox="0 0 109.2 102.206"
  enable-background="new 0 0 612 792"
  xml:space="preserve"
>

<path
  d="M 30.054,65.21 H 13.31 c 2.217,7.605 6.331,14.421 12.354,20.445 9.602,9.603 21.148,14.398 34.65,14.398 2.699,0 5.314,-0.201 7.854,-0.584 10.17,-1.535 19.074,-6.133 26.703,-13.814 6.062,-6.022 10.205,-12.84 12.439,-20.445 h -6.795 -9.936 z"
  id="path3907"
  style="fill:#2c2255"/>
  <g
    id="g3913"
    transform="translate(-71.07,-327.726)">
	<path
    d="m 91.891,370.194 h -8.747 c -0.32,1.922 -0.538,3.884 -0.637,5.896 h 10.396 5.215 75.275 6.871 c -0.1,-2.012 -0.318,-3.974 -0.641,-5.896"
    id="path3909"
    style="fill:#2c2255"/>
    <path
      d="m 82.507,381.565 c 0.099,2.013 0.316,3.975 0.637,5.896 h 9.094 6.893 73.648 6.846 c 0.322,-1.921 0.542,-3.883 0.642,-5.896"
      id="path3911"
      style="fill:#2c2255"/>
</g>
  <path
    d="M 107.312,36.992 C 105.08,29.366 100.936,22.518 94.871,16.452 87.262,8.843 78.383,4.278 68.246,2.742 65.682,2.353 63.041,2.149 60.314,2.149 c -13.502,0 -25.049,4.769 -34.65,14.303 -6.025,6.066 -10.141,12.914 -12.357,20.54"
    id="path3915"
    style="fill:#2c2255"/>
  <g
    id="g3919"
    transform="translate(-71.07,-327.726)">
	<path
    d="m 79.6,378.829 c 0,-25.824 19.395,-47.281 44.626,-51.055 -0.626,-0.023 -1.255,-0.048 -1.887,-0.048 -28.314,0 -51.269,22.88 -51.269,51.103 0,28.224 22.954,51.103 51.269,51.103 0.634,0 1.263,-0.024 1.891,-0.047 C 98.995,426.111 79.6,404.654 79.6,378.829 Z"
    id="path3917"
    style="fill:#f7941e"/>
</g>
  <g
    id="g3942"
    transform="translate(-71.07,-327.726)">

		<linearGradient
      id="SVGID_1_"
      gradientUnits="userSpaceOnUse"
      x1="131.3853"
      y1="358.5762"
      x2="131.3853"
      y2="432.21109"
      gradientTransform="matrix(1,0,0,-1,0,793)">
		<stop
      offset="0.3033"
      style="stop-color:#473788"
      id="stop3921"/>
      <stop
        offset="0.872"
        style="stop-color:#2C2255"
        id="stop3923"/>
	</linearGradient>
    <path
      d="m 164.653,376.089 c -0.164,-2.021 -0.504,-3.992 -1.012,-5.896 h -64.51 c -0.508,1.903 -0.849,3.874 -1.013,5.896 z"
      id="path3926"
      style="fill:url(#SVGID_1_)"/>

    <linearGradient
      id="SVGID_2_"
      gradientUnits="userSpaceOnUse"
      x1="131.3853"
      y1="358.5752"
      x2="131.3853"
      y2="432.21011"
      gradientTransform="matrix(1,0,0,-1,0,793)">
		<stop
      offset="0.3033"
      style="stop-color:#473788"
      id="stop3928"/>
      <stop
        offset="0.872"
        style="stop-color:#2C2255"
        id="stop3930"/>
	</linearGradient>
    <path
      d="M 164.653,381.565 H 98.119 c 0.164,2.021 0.503,3.992 1.012,5.896 h 64.511 c 0.508,-1.904 0.847,-3.875 1.011,-5.896 z"
      id="path3933"
      style="fill:url(#SVGID_2_)"/>

    <linearGradient
      id="SVGID_3_"
      gradientUnits="userSpaceOnUse"
      x1="131.3853"
      y1="358.57709"
      x2="131.3853"
      y2="432.2084"
      gradientTransform="matrix(1,0,0,-1,0,793)">
		<stop
      offset="0.3033"
      style="stop-color:#473788"
      id="stop3935"/>
      <stop
        offset="0.8631"
        style="stop-color:#2C2255"
        id="stop3937"/>
	</linearGradient>
    <path
      d="m 131.386,412.217 c 13.397,0 24.945,-7.893 30.263,-19.281 h -60.526 c 5.318,11.388 16.866,19.281 30.263,19.281 z"
      id="path3940"
      style="fill:url(#SVGID_3_)"/>
</g>
  <g
    id="g3950"
    transform="translate(-71.07,-327.726)">
	<path
    d="m 93.188,381.565 h 4.884 66.706 8.763 6.657 c 0.046,-0.871 0.072,-1.748 0.072,-2.631 0,-0.955 -0.035,-1.902 -0.089,-2.845 H 173.54 164.777 98.071 92.842 82.507 c -0.054,0.942 -0.089,1.89 -0.089,2.845 0,0.883 0.026,1.76 0.072,2.631 z"
    id="path3944"
    style="fill:#ffffff"/>
    <path
      d="M 100.928,364.718 H 84.376 c -0.544,1.783 -0.895,3.612 -1.232,5.476 h 8.525 7.259 64.679 9.16 6.547 c -0.338,-1.863 -0.773,-3.692 -1.316,-5.476"
      id="path3946"
      style="fill:#ffffff"/>
    <path
      d="m 173.026,387.46 h -9.16 -64.678 -6.912 -9.133 c 0.328,1.863 0.701,3.691 1.236,5.476 h 16.807 60.682 9.962 6.488 c 0.534,-1.784 0.965,-3.612 1.294,-5.476 z"
      id="path3948"
      style="fill:#ffffff"/>
</g>
</svg>